<svg width="25" height="28" viewBox="0 0 25 28" fill="none" xmlns="http://www.w3.org/2000/svg">
<path fill-rule="evenodd" clip-rule="evenodd" d="M24.7966 7.43839C24.5254 7.73766 24.0857 7.73766 23.8145 7.43839L19.4444 2.61626L19.4444 25.2874C19.4444 25.7105 19.1335 26.0536 18.75 26.0536C18.3665 26.0536 18.0556 25.7105 18.0556 25.2874L18.0556 2.61626L13.6856 7.43839C13.4143 7.73766 12.9746 7.73766 12.7033 7.43839C12.4322 7.13914 12.4322 6.65396 12.7033 6.35472L18.259 0.224448C18.5302 -0.0748161 18.9698 -0.0748161 19.241 0.224448L24.7966 6.35472C25.0678 6.65396 25.0678 7.13914 24.7966 7.43839ZM12.2967 20.1477C12.5678 20.4471 12.5678 20.9323 12.2967 21.2316L6.74111 27.3618C6.46986 27.661 6.03014 27.661 5.75889 27.3618L0.203335 21.2316C-0.0677776 20.9323 -0.0677776 20.4471 0.203335 20.1477C0.474585 19.8486 0.914305 19.8486 1.18555 20.1477L5.55555 24.97L5.55555 2.29885C5.55555 1.87565 5.86653 1.53257 6.25 1.53257C6.63347 1.53257 6.94444 1.87565 6.94444 2.29885L6.94444 24.97L11.3144 20.1477C11.5857 19.8486 12.0254 19.8486 12.2967 20.1477Z" fill="#8C8787"/>
</svg>